M48
; DRILL file {KiCad 5.1.9+dfsg1-1} date Sat Feb 27 20:45:06 2021
; FORMAT={-:-/ absolute / inch / decimal}
; #@! TF.CreationDate,2021-02-27T20:45:06-08:00
; #@! TF.GenerationSoftware,Kicad,Pcbnew,5.1.9+dfsg1-1
; #@! TF.FileFunction,Plated,1,2,PTH
FMAT,2
INCH
T1C0.0157
T2C0.0315
T3C0.0394
%
G90
G05
T1
X6.2992Y-1.748
X6.3189Y-1.7756
X6.3346Y-1.748
X6.3543Y-1.7756
X6.3701Y-1.748
X6.3898Y-1.7756
X6.4055Y-1.748
X6.4252Y-1.7756
X6.4409Y-1.748
X6.563Y-1.5512
X6.563Y-1.5984
X6.563Y-1.6378
X6.5945Y-1.5512
X6.5945Y-1.5984
X6.5945Y-1.6378
X6.626Y-1.5512
X6.626Y-1.5984
X6.626Y-1.6378
T2
X8.0787Y-1.5079
X8.0787Y-1.6063
T3
X6.1811Y-1.7638
X6.185Y-1.315
X8.0079Y-1.7874
X8.0748Y-1.3189
T0
M30
