%TF.GenerationSoftware,KiCad,Pcbnew,5.1.9+dfsg1-1*%
%TF.CreationDate,2021-02-27T20:44:50-08:00*%
%TF.ProjectId,hv-supply-test,68762d73-7570-4706-9c79-2d746573742e,rev?*%
%TF.SameCoordinates,Original*%
%TF.FileFunction,Soldermask,Top*%
%TF.FilePolarity,Negative*%
%FSLAX46Y46*%
G04 Gerber Fmt 4.6, Leading zero omitted, Abs format (unit mm)*
G04 Created by KiCad (PCBNEW 5.1.9+dfsg1-1) date 2021-02-27 20:44:50*
%MOMM*%
%LPD*%
G01*
G04 APERTURE LIST*
%ADD10C,2.000000*%
%ADD11R,2.029999X1.270000*%
%ADD12R,1.205000X1.550000*%
%ADD13R,1.910000X0.610000*%
%ADD14R,1.100000X1.100000*%
%ADD15R,1.050000X1.500000*%
%ADD16R,2.400000X1.500000*%
%ADD17R,2.500000X1.800000*%
%ADD18C,1.600000*%
%ADD19R,1.600000X1.600000*%
G04 APERTURE END LIST*
%TO.C,C2*%
G36*
G01*
X160749999Y-42300000D02*
X162050001Y-42300000D01*
G75*
G02*
X162300000Y-42549999I0J-249999D01*
G01*
X162300000Y-43200001D01*
G75*
G02*
X162050001Y-43450000I-249999J0D01*
G01*
X160749999Y-43450000D01*
G75*
G02*
X160500000Y-43200001I0J249999D01*
G01*
X160500000Y-42549999D01*
G75*
G02*
X160749999Y-42300000I249999J0D01*
G01*
G37*
G36*
G01*
X160749999Y-39350000D02*
X162050001Y-39350000D01*
G75*
G02*
X162300000Y-39599999I0J-249999D01*
G01*
X162300000Y-40250001D01*
G75*
G02*
X162050001Y-40500000I-249999J0D01*
G01*
X160749999Y-40500000D01*
G75*
G02*
X160500000Y-40250001I0J249999D01*
G01*
X160500000Y-39599999D01*
G75*
G02*
X160749999Y-39350000I249999J0D01*
G01*
G37*
%TD*%
D10*
%TO.C,TP4*%
X157100000Y-33400000D03*
%TD*%
%TO.C,TP3*%
X157000000Y-44800000D03*
%TD*%
%TO.C,R3*%
G36*
G01*
X180900000Y-27574999D02*
X180900000Y-28825001D01*
G75*
G02*
X180650001Y-29075000I-249999J0D01*
G01*
X180024999Y-29075000D01*
G75*
G02*
X179775000Y-28825001I0J249999D01*
G01*
X179775000Y-27574999D01*
G75*
G02*
X180024999Y-27325000I249999J0D01*
G01*
X180650001Y-27325000D01*
G75*
G02*
X180900000Y-27574999I0J-249999D01*
G01*
G37*
G36*
G01*
X183825000Y-27574999D02*
X183825000Y-28825001D01*
G75*
G02*
X183575001Y-29075000I-249999J0D01*
G01*
X182949999Y-29075000D01*
G75*
G02*
X182700000Y-28825001I0J249999D01*
G01*
X182700000Y-27574999D01*
G75*
G02*
X182949999Y-27325000I249999J0D01*
G01*
X183575001Y-27325000D01*
G75*
G02*
X183825000Y-27574999I0J-249999D01*
G01*
G37*
%TD*%
%TO.C,C3*%
G36*
G01*
X175100000Y-27749999D02*
X175100000Y-29050001D01*
G75*
G02*
X174850001Y-29300000I-249999J0D01*
G01*
X174199999Y-29300000D01*
G75*
G02*
X173950000Y-29050001I0J249999D01*
G01*
X173950000Y-27749999D01*
G75*
G02*
X174199999Y-27500000I249999J0D01*
G01*
X174850001Y-27500000D01*
G75*
G02*
X175100000Y-27749999I0J-249999D01*
G01*
G37*
G36*
G01*
X178050000Y-27749999D02*
X178050000Y-29050001D01*
G75*
G02*
X177800001Y-29300000I-249999J0D01*
G01*
X177149999Y-29300000D01*
G75*
G02*
X176900000Y-29050001I0J249999D01*
G01*
X176900000Y-27749999D01*
G75*
G02*
X177149999Y-27500000I249999J0D01*
G01*
X177800001Y-27500000D01*
G75*
G02*
X178050000Y-27749999I0J-249999D01*
G01*
G37*
%TD*%
%TO.C,C5*%
G36*
G01*
X200300001Y-38100000D02*
X198099999Y-38100000D01*
G75*
G02*
X197850000Y-37850001I0J249999D01*
G01*
X197850000Y-37199999D01*
G75*
G02*
X198099999Y-36950000I249999J0D01*
G01*
X200300001Y-36950000D01*
G75*
G02*
X200550000Y-37199999I0J-249999D01*
G01*
X200550000Y-37850001D01*
G75*
G02*
X200300001Y-38100000I-249999J0D01*
G01*
G37*
G36*
G01*
X200300001Y-41050000D02*
X198099999Y-41050000D01*
G75*
G02*
X197850000Y-40800001I0J249999D01*
G01*
X197850000Y-40149999D01*
G75*
G02*
X198099999Y-39900000I249999J0D01*
G01*
X200300001Y-39900000D01*
G75*
G02*
X200550000Y-40149999I0J-249999D01*
G01*
X200550000Y-40800001D01*
G75*
G02*
X200300001Y-41050000I-249999J0D01*
G01*
G37*
%TD*%
D11*
%TO.C,T1*%
X177510000Y-37800000D03*
X194490000Y-37800000D03*
X177510000Y-40300000D03*
X194490000Y-40300000D03*
X177510000Y-42800000D03*
X194490000Y-42800000D03*
X177510000Y-45300000D03*
X194490000Y-45300000D03*
X177510000Y-47800000D03*
X194490000Y-47800000D03*
%TD*%
%TO.C,R4*%
G36*
G01*
X170425000Y-36275000D02*
X170425000Y-35725000D01*
G75*
G02*
X170625000Y-35525000I200000J0D01*
G01*
X171025000Y-35525000D01*
G75*
G02*
X171225000Y-35725000I0J-200000D01*
G01*
X171225000Y-36275000D01*
G75*
G02*
X171025000Y-36475000I-200000J0D01*
G01*
X170625000Y-36475000D01*
G75*
G02*
X170425000Y-36275000I0J200000D01*
G01*
G37*
G36*
G01*
X168775000Y-36275000D02*
X168775000Y-35725000D01*
G75*
G02*
X168975000Y-35525000I200000J0D01*
G01*
X169375000Y-35525000D01*
G75*
G02*
X169575000Y-35725000I0J-200000D01*
G01*
X169575000Y-36275000D01*
G75*
G02*
X169375000Y-36475000I-200000J0D01*
G01*
X168975000Y-36475000D01*
G75*
G02*
X168775000Y-36275000I0J200000D01*
G01*
G37*
%TD*%
D12*
%TO.C,U2*%
X166897500Y-39725000D03*
X166897500Y-41275000D03*
X168102500Y-39725000D03*
X168102500Y-41275000D03*
D13*
X170280000Y-38595000D03*
X170280000Y-39865000D03*
X170280000Y-41135000D03*
X170280000Y-42405000D03*
X164720000Y-42405000D03*
X164720000Y-41135000D03*
X164720000Y-39865000D03*
X164720000Y-38595000D03*
%TD*%
D10*
%TO.C,TP2*%
X205100000Y-33500000D03*
%TD*%
%TO.C,TP1*%
X203400000Y-45400000D03*
%TD*%
%TO.C,R5*%
G36*
G01*
X173875000Y-41975000D02*
X173325000Y-41975000D01*
G75*
G02*
X173125000Y-41775000I0J200000D01*
G01*
X173125000Y-41375000D01*
G75*
G02*
X173325000Y-41175000I200000J0D01*
G01*
X173875000Y-41175000D01*
G75*
G02*
X174075000Y-41375000I0J-200000D01*
G01*
X174075000Y-41775000D01*
G75*
G02*
X173875000Y-41975000I-200000J0D01*
G01*
G37*
G36*
G01*
X173875000Y-43625000D02*
X173325000Y-43625000D01*
G75*
G02*
X173125000Y-43425000I0J200000D01*
G01*
X173125000Y-43025000D01*
G75*
G02*
X173325000Y-42825000I200000J0D01*
G01*
X173875000Y-42825000D01*
G75*
G02*
X174075000Y-43025000I0J-200000D01*
G01*
X174075000Y-43425000D01*
G75*
G02*
X173875000Y-43625000I-200000J0D01*
G01*
G37*
%TD*%
%TO.C,R2*%
G36*
G01*
X173325000Y-39225000D02*
X173875000Y-39225000D01*
G75*
G02*
X174075000Y-39425000I0J-200000D01*
G01*
X174075000Y-39825000D01*
G75*
G02*
X173875000Y-40025000I-200000J0D01*
G01*
X173325000Y-40025000D01*
G75*
G02*
X173125000Y-39825000I0J200000D01*
G01*
X173125000Y-39425000D01*
G75*
G02*
X173325000Y-39225000I200000J0D01*
G01*
G37*
G36*
G01*
X173325000Y-37575000D02*
X173875000Y-37575000D01*
G75*
G02*
X174075000Y-37775000I0J-200000D01*
G01*
X174075000Y-38175000D01*
G75*
G02*
X173875000Y-38375000I-200000J0D01*
G01*
X173325000Y-38375000D01*
G75*
G02*
X173125000Y-38175000I0J200000D01*
G01*
X173125000Y-37775000D01*
G75*
G02*
X173325000Y-37575000I200000J0D01*
G01*
G37*
%TD*%
%TO.C,R1*%
G36*
G01*
X161875000Y-36775000D02*
X161325000Y-36775000D01*
G75*
G02*
X161125000Y-36575000I0J200000D01*
G01*
X161125000Y-36175000D01*
G75*
G02*
X161325000Y-35975000I200000J0D01*
G01*
X161875000Y-35975000D01*
G75*
G02*
X162075000Y-36175000I0J-200000D01*
G01*
X162075000Y-36575000D01*
G75*
G02*
X161875000Y-36775000I-200000J0D01*
G01*
G37*
G36*
G01*
X161875000Y-38425000D02*
X161325000Y-38425000D01*
G75*
G02*
X161125000Y-38225000I0J200000D01*
G01*
X161125000Y-37825000D01*
G75*
G02*
X161325000Y-37625000I200000J0D01*
G01*
X161875000Y-37625000D01*
G75*
G02*
X162075000Y-37825000I0J-200000D01*
G01*
X162075000Y-38225000D01*
G75*
G02*
X161875000Y-38425000I-200000J0D01*
G01*
G37*
%TD*%
D14*
%TO.C,D3*%
X199000000Y-47400000D03*
X199000000Y-44600000D03*
%TD*%
D15*
%TO.C,D2*%
X184525000Y-32600000D03*
D16*
X182150000Y-32600000D03*
%TD*%
D17*
%TO.C,D1*%
X174200000Y-32600000D03*
X178200000Y-32600000D03*
%TD*%
D18*
%TO.C,C4*%
X205200000Y-38300000D03*
D19*
X205200000Y-40800000D03*
%TD*%
%TO.C,C1*%
G36*
G01*
X155899999Y-40700000D02*
X158100001Y-40700000D01*
G75*
G02*
X158350000Y-40949999I0J-249999D01*
G01*
X158350000Y-41600001D01*
G75*
G02*
X158100001Y-41850000I-249999J0D01*
G01*
X155899999Y-41850000D01*
G75*
G02*
X155650000Y-41600001I0J249999D01*
G01*
X155650000Y-40949999D01*
G75*
G02*
X155899999Y-40700000I249999J0D01*
G01*
G37*
G36*
G01*
X155899999Y-37750000D02*
X158100001Y-37750000D01*
G75*
G02*
X158350000Y-37999999I0J-249999D01*
G01*
X158350000Y-38650001D01*
G75*
G02*
X158100001Y-38900000I-249999J0D01*
G01*
X155899999Y-38900000D01*
G75*
G02*
X155650000Y-38650001I0J249999D01*
G01*
X155650000Y-37999999D01*
G75*
G02*
X155899999Y-37750000I249999J0D01*
G01*
G37*
%TD*%
M02*
