%TF.GenerationSoftware,KiCad,Pcbnew,5.1.9+dfsg1-1*%
%TF.CreationDate,2021-02-27T20:44:50-08:00*%
%TF.ProjectId,hv-supply-test,68762d73-7570-4706-9c79-2d746573742e,rev?*%
%TF.SameCoordinates,Original*%
%TF.FileFunction,Legend,Top*%
%TF.FilePolarity,Positive*%
%FSLAX46Y46*%
G04 Gerber Fmt 4.6, Leading zero omitted, Abs format (unit mm)*
G04 Created by KiCad (PCBNEW 5.1.9+dfsg1-1) date 2021-02-27 20:44:50*
%MOMM*%
%LPD*%
G01*
G04 APERTURE LIST*
%ADD10C,0.120000*%
%ADD11C,0.150000*%
G04 APERTURE END LIST*
D10*
%TO.C,C2*%
X162310000Y-40688748D02*
X162310000Y-42111252D01*
X160490000Y-40688748D02*
X160490000Y-42111252D01*
%TO.C,TP4*%
X158351000Y-33400000D02*
G75*
G03*
X158351000Y-33400000I-1251000J0D01*
G01*
%TO.C,TP3*%
X158251000Y-44800000D02*
G75*
G03*
X158251000Y-44800000I-1251000J0D01*
G01*
%TO.C,R3*%
X182527064Y-29110000D02*
X181072936Y-29110000D01*
X182527064Y-27290000D02*
X181072936Y-27290000D01*
%TO.C,C3*%
X176711252Y-29310000D02*
X175288748Y-29310000D01*
X176711252Y-27490000D02*
X175288748Y-27490000D01*
%TO.C,C5*%
X197840000Y-39711252D02*
X197840000Y-38288748D01*
X200560000Y-39711252D02*
X200560000Y-38288748D01*
%TO.C,T1*%
X179005000Y-37465000D02*
X179805000Y-36665000D01*
X179805000Y-36665000D02*
X192995000Y-36665000D01*
X192995000Y-36665000D02*
X192995000Y-48935000D01*
X192995000Y-48935000D02*
X179005000Y-48935000D01*
X179005000Y-48935000D02*
X179005000Y-37465000D01*
%TO.C,R4*%
X169762742Y-35477500D02*
X170237258Y-35477500D01*
X169762742Y-36522500D02*
X170237258Y-36522500D01*
D11*
%TO.C,U2*%
X165425000Y-37925000D02*
X165425000Y-38125000D01*
X169575000Y-37925000D02*
X169575000Y-38125000D01*
X169575000Y-43075000D02*
X169575000Y-42875000D01*
X165425000Y-43075000D02*
X165425000Y-42875000D01*
X165425000Y-37925000D02*
X169575000Y-37925000D01*
X165425000Y-43075000D02*
X169575000Y-43075000D01*
X165425000Y-38125000D02*
X164125000Y-38125000D01*
D10*
%TO.C,TP2*%
X206351000Y-33500000D02*
G75*
G03*
X206351000Y-33500000I-1251000J0D01*
G01*
%TO.C,TP1*%
X204651000Y-45400000D02*
G75*
G03*
X204651000Y-45400000I-1251000J0D01*
G01*
%TO.C,R5*%
X173077500Y-42637258D02*
X173077500Y-42162742D01*
X174122500Y-42637258D02*
X174122500Y-42162742D01*
%TO.C,R2*%
X174122500Y-38562742D02*
X174122500Y-39037258D01*
X173077500Y-38562742D02*
X173077500Y-39037258D01*
%TO.C,R1*%
X161077500Y-37437258D02*
X161077500Y-36962742D01*
X162122500Y-37437258D02*
X162122500Y-36962742D01*
%TO.C,D3*%
X200000000Y-43800000D02*
X198000000Y-43800000D01*
X198000000Y-43800000D02*
X198000000Y-47650000D01*
X200000000Y-43800000D02*
X200000000Y-47650000D01*
%TO.C,D2*%
X184000000Y-31600000D02*
X180800000Y-31600000D01*
X180800000Y-33600000D02*
X184000000Y-33600000D01*
X180800000Y-33600000D02*
X180800000Y-31600000D01*
%TO.C,D1*%
X179600000Y-34250000D02*
X179600000Y-30950000D01*
X179600000Y-30950000D02*
X174200000Y-30950000D01*
X179600000Y-34250000D02*
X174200000Y-34250000D01*
%TO.C,C4*%
X208470000Y-39550000D02*
G75*
G03*
X208470000Y-39550000I-3270000J0D01*
G01*
X201970000Y-39550000D02*
X208430000Y-39550000D01*
X201970000Y-39510000D02*
X208430000Y-39510000D01*
X201970000Y-39470000D02*
X208430000Y-39470000D01*
X201972000Y-39430000D02*
X208428000Y-39430000D01*
X201973000Y-39390000D02*
X208427000Y-39390000D01*
X201976000Y-39350000D02*
X208424000Y-39350000D01*
X201978000Y-39310000D02*
X204160000Y-39310000D01*
X206240000Y-39310000D02*
X208422000Y-39310000D01*
X201982000Y-39270000D02*
X204160000Y-39270000D01*
X206240000Y-39270000D02*
X208418000Y-39270000D01*
X201985000Y-39230000D02*
X204160000Y-39230000D01*
X206240000Y-39230000D02*
X208415000Y-39230000D01*
X201989000Y-39190000D02*
X204160000Y-39190000D01*
X206240000Y-39190000D02*
X208411000Y-39190000D01*
X201994000Y-39150000D02*
X204160000Y-39150000D01*
X206240000Y-39150000D02*
X208406000Y-39150000D01*
X201999000Y-39110000D02*
X204160000Y-39110000D01*
X206240000Y-39110000D02*
X208401000Y-39110000D01*
X202005000Y-39070000D02*
X204160000Y-39070000D01*
X206240000Y-39070000D02*
X208395000Y-39070000D01*
X202011000Y-39030000D02*
X204160000Y-39030000D01*
X206240000Y-39030000D02*
X208389000Y-39030000D01*
X202018000Y-38990000D02*
X204160000Y-38990000D01*
X206240000Y-38990000D02*
X208382000Y-38990000D01*
X202025000Y-38950000D02*
X204160000Y-38950000D01*
X206240000Y-38950000D02*
X208375000Y-38950000D01*
X202033000Y-38910000D02*
X204160000Y-38910000D01*
X206240000Y-38910000D02*
X208367000Y-38910000D01*
X202041000Y-38870000D02*
X204160000Y-38870000D01*
X206240000Y-38870000D02*
X208359000Y-38870000D01*
X202050000Y-38829000D02*
X204160000Y-38829000D01*
X206240000Y-38829000D02*
X208350000Y-38829000D01*
X202059000Y-38789000D02*
X204160000Y-38789000D01*
X206240000Y-38789000D02*
X208341000Y-38789000D01*
X202069000Y-38749000D02*
X204160000Y-38749000D01*
X206240000Y-38749000D02*
X208331000Y-38749000D01*
X202079000Y-38709000D02*
X204160000Y-38709000D01*
X206240000Y-38709000D02*
X208321000Y-38709000D01*
X202090000Y-38669000D02*
X204160000Y-38669000D01*
X206240000Y-38669000D02*
X208310000Y-38669000D01*
X202102000Y-38629000D02*
X204160000Y-38629000D01*
X206240000Y-38629000D02*
X208298000Y-38629000D01*
X202114000Y-38589000D02*
X204160000Y-38589000D01*
X206240000Y-38589000D02*
X208286000Y-38589000D01*
X202126000Y-38549000D02*
X204160000Y-38549000D01*
X206240000Y-38549000D02*
X208274000Y-38549000D01*
X202139000Y-38509000D02*
X204160000Y-38509000D01*
X206240000Y-38509000D02*
X208261000Y-38509000D01*
X202153000Y-38469000D02*
X204160000Y-38469000D01*
X206240000Y-38469000D02*
X208247000Y-38469000D01*
X202167000Y-38429000D02*
X204160000Y-38429000D01*
X206240000Y-38429000D02*
X208233000Y-38429000D01*
X202182000Y-38389000D02*
X204160000Y-38389000D01*
X206240000Y-38389000D02*
X208218000Y-38389000D01*
X202198000Y-38349000D02*
X204160000Y-38349000D01*
X206240000Y-38349000D02*
X208202000Y-38349000D01*
X202214000Y-38309000D02*
X204160000Y-38309000D01*
X206240000Y-38309000D02*
X208186000Y-38309000D01*
X202230000Y-38269000D02*
X204160000Y-38269000D01*
X206240000Y-38269000D02*
X208170000Y-38269000D01*
X202248000Y-38229000D02*
X204160000Y-38229000D01*
X206240000Y-38229000D02*
X208152000Y-38229000D01*
X202266000Y-38189000D02*
X204160000Y-38189000D01*
X206240000Y-38189000D02*
X208134000Y-38189000D01*
X202284000Y-38149000D02*
X204160000Y-38149000D01*
X206240000Y-38149000D02*
X208116000Y-38149000D01*
X202304000Y-38109000D02*
X204160000Y-38109000D01*
X206240000Y-38109000D02*
X208096000Y-38109000D01*
X202324000Y-38069000D02*
X204160000Y-38069000D01*
X206240000Y-38069000D02*
X208076000Y-38069000D01*
X202344000Y-38029000D02*
X204160000Y-38029000D01*
X206240000Y-38029000D02*
X208056000Y-38029000D01*
X202366000Y-37989000D02*
X204160000Y-37989000D01*
X206240000Y-37989000D02*
X208034000Y-37989000D01*
X202388000Y-37949000D02*
X204160000Y-37949000D01*
X206240000Y-37949000D02*
X208012000Y-37949000D01*
X202410000Y-37909000D02*
X204160000Y-37909000D01*
X206240000Y-37909000D02*
X207990000Y-37909000D01*
X202434000Y-37869000D02*
X204160000Y-37869000D01*
X206240000Y-37869000D02*
X207966000Y-37869000D01*
X202458000Y-37829000D02*
X204160000Y-37829000D01*
X206240000Y-37829000D02*
X207942000Y-37829000D01*
X202484000Y-37789000D02*
X204160000Y-37789000D01*
X206240000Y-37789000D02*
X207916000Y-37789000D01*
X202510000Y-37749000D02*
X204160000Y-37749000D01*
X206240000Y-37749000D02*
X207890000Y-37749000D01*
X202536000Y-37709000D02*
X204160000Y-37709000D01*
X206240000Y-37709000D02*
X207864000Y-37709000D01*
X202564000Y-37669000D02*
X204160000Y-37669000D01*
X206240000Y-37669000D02*
X207836000Y-37669000D01*
X202593000Y-37629000D02*
X204160000Y-37629000D01*
X206240000Y-37629000D02*
X207807000Y-37629000D01*
X202622000Y-37589000D02*
X204160000Y-37589000D01*
X206240000Y-37589000D02*
X207778000Y-37589000D01*
X202652000Y-37549000D02*
X204160000Y-37549000D01*
X206240000Y-37549000D02*
X207748000Y-37549000D01*
X202684000Y-37509000D02*
X204160000Y-37509000D01*
X206240000Y-37509000D02*
X207716000Y-37509000D01*
X202716000Y-37469000D02*
X204160000Y-37469000D01*
X206240000Y-37469000D02*
X207684000Y-37469000D01*
X202750000Y-37429000D02*
X204160000Y-37429000D01*
X206240000Y-37429000D02*
X207650000Y-37429000D01*
X202784000Y-37389000D02*
X204160000Y-37389000D01*
X206240000Y-37389000D02*
X207616000Y-37389000D01*
X202820000Y-37349000D02*
X204160000Y-37349000D01*
X206240000Y-37349000D02*
X207580000Y-37349000D01*
X202857000Y-37309000D02*
X204160000Y-37309000D01*
X206240000Y-37309000D02*
X207543000Y-37309000D01*
X202895000Y-37269000D02*
X204160000Y-37269000D01*
X206240000Y-37269000D02*
X207505000Y-37269000D01*
X202935000Y-37229000D02*
X207465000Y-37229000D01*
X202976000Y-37189000D02*
X207424000Y-37189000D01*
X203018000Y-37149000D02*
X207382000Y-37149000D01*
X203063000Y-37109000D02*
X207337000Y-37109000D01*
X203108000Y-37069000D02*
X207292000Y-37069000D01*
X203156000Y-37029000D02*
X207244000Y-37029000D01*
X203205000Y-36989000D02*
X207195000Y-36989000D01*
X203256000Y-36949000D02*
X207144000Y-36949000D01*
X203310000Y-36909000D02*
X207090000Y-36909000D01*
X203366000Y-36869000D02*
X207034000Y-36869000D01*
X203424000Y-36829000D02*
X206976000Y-36829000D01*
X203486000Y-36789000D02*
X206914000Y-36789000D01*
X203550000Y-36749000D02*
X206850000Y-36749000D01*
X203619000Y-36709000D02*
X206781000Y-36709000D01*
X203691000Y-36669000D02*
X206709000Y-36669000D01*
X203768000Y-36629000D02*
X206632000Y-36629000D01*
X203850000Y-36589000D02*
X206550000Y-36589000D01*
X203938000Y-36549000D02*
X206462000Y-36549000D01*
X204035000Y-36509000D02*
X206365000Y-36509000D01*
X204141000Y-36469000D02*
X206259000Y-36469000D01*
X204260000Y-36429000D02*
X206140000Y-36429000D01*
X204398000Y-36389000D02*
X206002000Y-36389000D01*
X204567000Y-36349000D02*
X205833000Y-36349000D01*
X204798000Y-36309000D02*
X205602000Y-36309000D01*
X203361000Y-43050241D02*
X203361000Y-42420241D01*
X203046000Y-42735241D02*
X203676000Y-42735241D01*
%TO.C,C1*%
X158360000Y-39088748D02*
X158360000Y-40511252D01*
X155640000Y-39088748D02*
X155640000Y-40511252D01*
%TO.C,C2*%
D11*
X159957142Y-42266666D02*
X160004761Y-42314285D01*
X160052380Y-42457142D01*
X160052380Y-42552380D01*
X160004761Y-42695238D01*
X159909523Y-42790476D01*
X159814285Y-42838095D01*
X159623809Y-42885714D01*
X159480952Y-42885714D01*
X159290476Y-42838095D01*
X159195238Y-42790476D01*
X159100000Y-42695238D01*
X159052380Y-42552380D01*
X159052380Y-42457142D01*
X159100000Y-42314285D01*
X159147619Y-42266666D01*
X159147619Y-41885714D02*
X159100000Y-41838095D01*
X159052380Y-41742857D01*
X159052380Y-41504761D01*
X159100000Y-41409523D01*
X159147619Y-41361904D01*
X159242857Y-41314285D01*
X159338095Y-41314285D01*
X159480952Y-41361904D01*
X160052380Y-41933333D01*
X160052380Y-41314285D01*
%TO.C,TP4*%
X155838095Y-35102380D02*
X156409523Y-35102380D01*
X156123809Y-36102380D02*
X156123809Y-35102380D01*
X156742857Y-36102380D02*
X156742857Y-35102380D01*
X157123809Y-35102380D01*
X157219047Y-35150000D01*
X157266666Y-35197619D01*
X157314285Y-35292857D01*
X157314285Y-35435714D01*
X157266666Y-35530952D01*
X157219047Y-35578571D01*
X157123809Y-35626190D01*
X156742857Y-35626190D01*
X158171428Y-35435714D02*
X158171428Y-36102380D01*
X157933333Y-35054761D02*
X157695238Y-35769047D01*
X158314285Y-35769047D01*
%TO.C,TP3*%
X155738095Y-46502380D02*
X156309523Y-46502380D01*
X156023809Y-47502380D02*
X156023809Y-46502380D01*
X156642857Y-47502380D02*
X156642857Y-46502380D01*
X157023809Y-46502380D01*
X157119047Y-46550000D01*
X157166666Y-46597619D01*
X157214285Y-46692857D01*
X157214285Y-46835714D01*
X157166666Y-46930952D01*
X157119047Y-46978571D01*
X157023809Y-47026190D01*
X156642857Y-47026190D01*
X157547619Y-46502380D02*
X158166666Y-46502380D01*
X157833333Y-46883333D01*
X157976190Y-46883333D01*
X158071428Y-46930952D01*
X158119047Y-46978571D01*
X158166666Y-47073809D01*
X158166666Y-47311904D01*
X158119047Y-47407142D01*
X158071428Y-47454761D01*
X157976190Y-47502380D01*
X157690476Y-47502380D01*
X157595238Y-47454761D01*
X157547619Y-47407142D01*
%TO.C,R3*%
X181633333Y-30472380D02*
X181300000Y-29996190D01*
X181061904Y-30472380D02*
X181061904Y-29472380D01*
X181442857Y-29472380D01*
X181538095Y-29520000D01*
X181585714Y-29567619D01*
X181633333Y-29662857D01*
X181633333Y-29805714D01*
X181585714Y-29900952D01*
X181538095Y-29948571D01*
X181442857Y-29996190D01*
X181061904Y-29996190D01*
X181966666Y-29472380D02*
X182585714Y-29472380D01*
X182252380Y-29853333D01*
X182395238Y-29853333D01*
X182490476Y-29900952D01*
X182538095Y-29948571D01*
X182585714Y-30043809D01*
X182585714Y-30281904D01*
X182538095Y-30377142D01*
X182490476Y-30424761D01*
X182395238Y-30472380D01*
X182109523Y-30472380D01*
X182014285Y-30424761D01*
X181966666Y-30377142D01*
%TO.C,C3*%
X175833333Y-30607142D02*
X175785714Y-30654761D01*
X175642857Y-30702380D01*
X175547619Y-30702380D01*
X175404761Y-30654761D01*
X175309523Y-30559523D01*
X175261904Y-30464285D01*
X175214285Y-30273809D01*
X175214285Y-30130952D01*
X175261904Y-29940476D01*
X175309523Y-29845238D01*
X175404761Y-29750000D01*
X175547619Y-29702380D01*
X175642857Y-29702380D01*
X175785714Y-29750000D01*
X175833333Y-29797619D01*
X176166666Y-29702380D02*
X176785714Y-29702380D01*
X176452380Y-30083333D01*
X176595238Y-30083333D01*
X176690476Y-30130952D01*
X176738095Y-30178571D01*
X176785714Y-30273809D01*
X176785714Y-30511904D01*
X176738095Y-30607142D01*
X176690476Y-30654761D01*
X176595238Y-30702380D01*
X176309523Y-30702380D01*
X176214285Y-30654761D01*
X176166666Y-30607142D01*
%TO.C,C5*%
X198833333Y-35957142D02*
X198785714Y-36004761D01*
X198642857Y-36052380D01*
X198547619Y-36052380D01*
X198404761Y-36004761D01*
X198309523Y-35909523D01*
X198261904Y-35814285D01*
X198214285Y-35623809D01*
X198214285Y-35480952D01*
X198261904Y-35290476D01*
X198309523Y-35195238D01*
X198404761Y-35100000D01*
X198547619Y-35052380D01*
X198642857Y-35052380D01*
X198785714Y-35100000D01*
X198833333Y-35147619D01*
X199738095Y-35052380D02*
X199261904Y-35052380D01*
X199214285Y-35528571D01*
X199261904Y-35480952D01*
X199357142Y-35433333D01*
X199595238Y-35433333D01*
X199690476Y-35480952D01*
X199738095Y-35528571D01*
X199785714Y-35623809D01*
X199785714Y-35861904D01*
X199738095Y-35957142D01*
X199690476Y-36004761D01*
X199595238Y-36052380D01*
X199357142Y-36052380D01*
X199261904Y-36004761D01*
X199214285Y-35957142D01*
%TO.C,T1*%
X185238095Y-35117380D02*
X185809523Y-35117380D01*
X185523809Y-36117380D02*
X185523809Y-35117380D01*
X186666666Y-36117380D02*
X186095238Y-36117380D01*
X186380952Y-36117380D02*
X186380952Y-35117380D01*
X186285714Y-35260238D01*
X186190476Y-35355476D01*
X186095238Y-35403095D01*
%TO.C,R4*%
X169833333Y-34852380D02*
X169500000Y-34376190D01*
X169261904Y-34852380D02*
X169261904Y-33852380D01*
X169642857Y-33852380D01*
X169738095Y-33900000D01*
X169785714Y-33947619D01*
X169833333Y-34042857D01*
X169833333Y-34185714D01*
X169785714Y-34280952D01*
X169738095Y-34328571D01*
X169642857Y-34376190D01*
X169261904Y-34376190D01*
X170690476Y-34185714D02*
X170690476Y-34852380D01*
X170452380Y-33804761D02*
X170214285Y-34519047D01*
X170833333Y-34519047D01*
%TO.C,U2*%
X163838095Y-36452380D02*
X163838095Y-37261904D01*
X163885714Y-37357142D01*
X163933333Y-37404761D01*
X164028571Y-37452380D01*
X164219047Y-37452380D01*
X164314285Y-37404761D01*
X164361904Y-37357142D01*
X164409523Y-37261904D01*
X164409523Y-36452380D01*
X164838095Y-36547619D02*
X164885714Y-36500000D01*
X164980952Y-36452380D01*
X165219047Y-36452380D01*
X165314285Y-36500000D01*
X165361904Y-36547619D01*
X165409523Y-36642857D01*
X165409523Y-36738095D01*
X165361904Y-36880952D01*
X164790476Y-37452380D01*
X165409523Y-37452380D01*
%TO.C,TP2*%
X203838095Y-35202380D02*
X204409523Y-35202380D01*
X204123809Y-36202380D02*
X204123809Y-35202380D01*
X204742857Y-36202380D02*
X204742857Y-35202380D01*
X205123809Y-35202380D01*
X205219047Y-35250000D01*
X205266666Y-35297619D01*
X205314285Y-35392857D01*
X205314285Y-35535714D01*
X205266666Y-35630952D01*
X205219047Y-35678571D01*
X205123809Y-35726190D01*
X204742857Y-35726190D01*
X205695238Y-35297619D02*
X205742857Y-35250000D01*
X205838095Y-35202380D01*
X206076190Y-35202380D01*
X206171428Y-35250000D01*
X206219047Y-35297619D01*
X206266666Y-35392857D01*
X206266666Y-35488095D01*
X206219047Y-35630952D01*
X205647619Y-36202380D01*
X206266666Y-36202380D01*
%TO.C,TP1*%
X202138095Y-47102380D02*
X202709523Y-47102380D01*
X202423809Y-48102380D02*
X202423809Y-47102380D01*
X203042857Y-48102380D02*
X203042857Y-47102380D01*
X203423809Y-47102380D01*
X203519047Y-47150000D01*
X203566666Y-47197619D01*
X203614285Y-47292857D01*
X203614285Y-47435714D01*
X203566666Y-47530952D01*
X203519047Y-47578571D01*
X203423809Y-47626190D01*
X203042857Y-47626190D01*
X204566666Y-48102380D02*
X203995238Y-48102380D01*
X204280952Y-48102380D02*
X204280952Y-47102380D01*
X204185714Y-47245238D01*
X204090476Y-47340476D01*
X203995238Y-47388095D01*
%TO.C,R5*%
X174052380Y-45566666D02*
X173576190Y-45900000D01*
X174052380Y-46138095D02*
X173052380Y-46138095D01*
X173052380Y-45757142D01*
X173100000Y-45661904D01*
X173147619Y-45614285D01*
X173242857Y-45566666D01*
X173385714Y-45566666D01*
X173480952Y-45614285D01*
X173528571Y-45661904D01*
X173576190Y-45757142D01*
X173576190Y-46138095D01*
X173052380Y-44661904D02*
X173052380Y-45138095D01*
X173528571Y-45185714D01*
X173480952Y-45138095D01*
X173433333Y-45042857D01*
X173433333Y-44804761D01*
X173480952Y-44709523D01*
X173528571Y-44661904D01*
X173623809Y-44614285D01*
X173861904Y-44614285D01*
X173957142Y-44661904D01*
X174004761Y-44709523D01*
X174052380Y-44804761D01*
X174052380Y-45042857D01*
X174004761Y-45138095D01*
X173957142Y-45185714D01*
%TO.C,R2*%
X174052380Y-36366666D02*
X173576190Y-36700000D01*
X174052380Y-36938095D02*
X173052380Y-36938095D01*
X173052380Y-36557142D01*
X173100000Y-36461904D01*
X173147619Y-36414285D01*
X173242857Y-36366666D01*
X173385714Y-36366666D01*
X173480952Y-36414285D01*
X173528571Y-36461904D01*
X173576190Y-36557142D01*
X173576190Y-36938095D01*
X173147619Y-35985714D02*
X173100000Y-35938095D01*
X173052380Y-35842857D01*
X173052380Y-35604761D01*
X173100000Y-35509523D01*
X173147619Y-35461904D01*
X173242857Y-35414285D01*
X173338095Y-35414285D01*
X173480952Y-35461904D01*
X174052380Y-36033333D01*
X174052380Y-35414285D01*
%TO.C,R1*%
X160622380Y-37366666D02*
X160146190Y-37700000D01*
X160622380Y-37938095D02*
X159622380Y-37938095D01*
X159622380Y-37557142D01*
X159670000Y-37461904D01*
X159717619Y-37414285D01*
X159812857Y-37366666D01*
X159955714Y-37366666D01*
X160050952Y-37414285D01*
X160098571Y-37461904D01*
X160146190Y-37557142D01*
X160146190Y-37938095D01*
X160622380Y-36414285D02*
X160622380Y-36985714D01*
X160622380Y-36700000D02*
X159622380Y-36700000D01*
X159765238Y-36795238D01*
X159860476Y-36890476D01*
X159908095Y-36985714D01*
%TO.C,D3*%
X200461904Y-43552380D02*
X200461904Y-42552380D01*
X200700000Y-42552380D01*
X200842857Y-42600000D01*
X200938095Y-42695238D01*
X200985714Y-42790476D01*
X201033333Y-42980952D01*
X201033333Y-43123809D01*
X200985714Y-43314285D01*
X200938095Y-43409523D01*
X200842857Y-43504761D01*
X200700000Y-43552380D01*
X200461904Y-43552380D01*
X201366666Y-42552380D02*
X201985714Y-42552380D01*
X201652380Y-42933333D01*
X201795238Y-42933333D01*
X201890476Y-42980952D01*
X201938095Y-43028571D01*
X201985714Y-43123809D01*
X201985714Y-43361904D01*
X201938095Y-43457142D01*
X201890476Y-43504761D01*
X201795238Y-43552380D01*
X201509523Y-43552380D01*
X201414285Y-43504761D01*
X201366666Y-43457142D01*
%TO.C,D2*%
X181461904Y-35652380D02*
X181461904Y-34652380D01*
X181700000Y-34652380D01*
X181842857Y-34700000D01*
X181938095Y-34795238D01*
X181985714Y-34890476D01*
X182033333Y-35080952D01*
X182033333Y-35223809D01*
X181985714Y-35414285D01*
X181938095Y-35509523D01*
X181842857Y-35604761D01*
X181700000Y-35652380D01*
X181461904Y-35652380D01*
X182414285Y-34747619D02*
X182461904Y-34700000D01*
X182557142Y-34652380D01*
X182795238Y-34652380D01*
X182890476Y-34700000D01*
X182938095Y-34747619D01*
X182985714Y-34842857D01*
X182985714Y-34938095D01*
X182938095Y-35080952D01*
X182366666Y-35652380D01*
X182985714Y-35652380D01*
%TO.C,D1*%
X175061904Y-35852380D02*
X175061904Y-34852380D01*
X175300000Y-34852380D01*
X175442857Y-34900000D01*
X175538095Y-34995238D01*
X175585714Y-35090476D01*
X175633333Y-35280952D01*
X175633333Y-35423809D01*
X175585714Y-35614285D01*
X175538095Y-35709523D01*
X175442857Y-35804761D01*
X175300000Y-35852380D01*
X175061904Y-35852380D01*
X176585714Y-35852380D02*
X176014285Y-35852380D01*
X176300000Y-35852380D02*
X176300000Y-34852380D01*
X176204761Y-34995238D01*
X176109523Y-35090476D01*
X176014285Y-35138095D01*
%TO.C,C4*%
X208657142Y-43866666D02*
X208704761Y-43914285D01*
X208752380Y-44057142D01*
X208752380Y-44152380D01*
X208704761Y-44295238D01*
X208609523Y-44390476D01*
X208514285Y-44438095D01*
X208323809Y-44485714D01*
X208180952Y-44485714D01*
X207990476Y-44438095D01*
X207895238Y-44390476D01*
X207800000Y-44295238D01*
X207752380Y-44152380D01*
X207752380Y-44057142D01*
X207800000Y-43914285D01*
X207847619Y-43866666D01*
X208085714Y-43009523D02*
X208752380Y-43009523D01*
X207704761Y-43247619D02*
X208419047Y-43485714D01*
X208419047Y-42866666D01*
%TO.C,C1*%
X154557142Y-41166666D02*
X154604761Y-41214285D01*
X154652380Y-41357142D01*
X154652380Y-41452380D01*
X154604761Y-41595238D01*
X154509523Y-41690476D01*
X154414285Y-41738095D01*
X154223809Y-41785714D01*
X154080952Y-41785714D01*
X153890476Y-41738095D01*
X153795238Y-41690476D01*
X153700000Y-41595238D01*
X153652380Y-41452380D01*
X153652380Y-41357142D01*
X153700000Y-41214285D01*
X153747619Y-41166666D01*
X154652380Y-40214285D02*
X154652380Y-40785714D01*
X154652380Y-40500000D02*
X153652380Y-40500000D01*
X153795238Y-40595238D01*
X153890476Y-40690476D01*
X153938095Y-40785714D01*
%TD*%
M02*
